# xmcd
#
# Track frame offsets: 
#        150
#        13300
#        27372
#        34522
#        47822
#        57120
#        71695
#        87645
#        102425
#        111715
#        124270
#        135492
#        144510
#        155192
#        172795
#
# Disc length: 2464 seconds
#
# Revision: 0
# Processed by: cddbd v1.4PL0 Copyright (c) Steve Scherf et al.
# Submitted via: ExactAudioCopy v0.90b4
#
DISCID=da099e0f
DTITLE=Various Artist - Red, White and Bluegrass
DYEAR=2001
DGENRE=Bluegrass
TTITLE0=Star Spangled Banner - Charlie Cushman and Randy Howard
TTITLE1=Cincinnati Ohio - Osborne Brothers
TTITLE2=Alabama Jubilee - Merle Travis and Joe Maphis
TTITLE3=California Blues (Blue Yodel 4) - Josh Graves and Billy Troy
TTITLE4=Arkansas Traveler - Fiddlin'red Herron
TTITLE5=Peach Pickin' Time in Georgia - Merle Travis
TTITLE6=Kentucky - Mac Wiseman
TTITLE7=Start and Stripes Forever - Star Spangled Band
TTITLE8=Georgia Piney Woods - Osborne Brothers
TTITLE9=Colorado Calling Me - Jim and Jesse
TTITLE10=Pennsylvania Polka - Arthur Smith and Don Reno
TTITLE11=There Ain't a Cow in Texas - Merle Travis
TTITLE12=I'm Going Back to Old Kentucky - Osborne Brothers
TTITLE13=Dixie in My Eye - Eddie Adcock Band
TTITLE14=America, The Beautiful - Star Spangled Band
EXTD=
EXTT0=
EXTT1=
EXTT2=
EXTT3=
EXTT4=
EXTT5=
EXTT6=
EXTT7=
EXTT8=
EXTT9=
EXTT10=
EXTT11=
EXTT12=
EXTT13=
EXTT14=
PLAYORDER=
